<svg width="20" height="20" viewBox="0 0 20 20" fill="none" xmlns="http://www.w3.org/2000/svg">
<g id="Frame">
<path id="Vector" d="M17.4574 3.13056C17.4484 2.97766 17.3837 2.83336 17.2754 2.72505C17.1671 2.61675 17.0228 2.55199 16.8699 2.54306C10.9222 2.19384 6.15816 3.98447 4.12691 7.34384C3.42282 8.49299 3.07586 9.82536 3.13004 11.172C3.17457 12.4157 3.53707 13.672 4.20738 14.9102L2.68316 16.4337C2.56588 16.551 2.5 16.71 2.5 16.8759C2.5 17.0417 2.56588 17.2008 2.68316 17.3181C2.80044 17.4353 2.95949 17.5012 3.12535 17.5012C3.2912 17.5012 3.45026 17.4353 3.56753 17.3181L5.09097 15.7938C6.32847 16.4634 7.5855 16.8259 8.82847 16.8704C8.91545 16.8735 9.00217 16.8751 9.08863 16.8751C10.3478 16.8785 11.5831 16.5317 12.6566 15.8735C16.016 13.8423 17.8074 9.079 17.4574 3.13056ZM12.0121 14.8048C10.2347 15.8813 8.13082 15.8985 6.0191 14.8649L12.9433 7.9415C13.0014 7.88343 13.0474 7.81449 13.0789 7.73862C13.1103 7.66275 13.1265 7.58143 13.1265 7.49931C13.1265 7.41719 13.1103 7.33587 13.0789 7.26C13.0474 7.18413 13.0014 7.11519 12.9433 7.05712C12.8852 6.99905 12.8163 6.95299 12.7404 6.92156C12.6646 6.89014 12.5832 6.87396 12.5011 6.87396C12.419 6.87396 12.3377 6.89014 12.2618 6.92156C12.1859 6.95299 12.117 6.99905 12.0589 7.05712L5.1355 13.9845C4.10504 11.8751 4.11988 9.76572 5.19566 7.9915C6.92144 5.14228 11.0238 3.58212 16.2355 3.76806C16.4222 8.97587 14.8613 13.079 12.0121 14.8048Z" fill="#05192C" fill-opacity="0.6"/>
</g>
</svg>
