<svg width="18" height="18" viewBox="0 0 18 18" fill="none" xmlns="http://www.w3.org/2000/svg">
<g id="Group">
<g id="Group_2">
<path id="Vector (Stroke)" fill-rule="evenodd" clip-rule="evenodd" d="M16.6823 10.249C16.6823 6.69604 13.8019 3.81562 10.249 3.81562V2.51562C14.5199 2.51562 17.9823 5.97807 17.9823 10.249C17.9823 14.5199 14.5199 17.9823 10.249 17.9823C5.97807 17.9823 2.51562 14.5199 2.51562 10.249H3.81562C3.81562 13.8019 6.69604 16.6823 10.249 16.6823C13.8019 16.6823 16.6823 13.8019 16.6823 10.249Z" fill="#05192C" fill-opacity="0.6"/>
<path id="Vector (Stroke)_2" fill-rule="evenodd" clip-rule="evenodd" d="M1.34607 7.51562H7.51562V1.34607C4.25139 1.65335 1.65335 4.25139 1.34607 7.51562ZM0.015625 8.16562C0.015625 3.66462 3.66462 0.015625 8.16562 0.015625H8.81562V8.81562H0.015625V8.16562Z" fill="#05192C" fill-opacity="0.6"/>
</g>
</g>
</svg>
