<svg width="24" height="24" viewBox="0 0 20 20" fill="none" xmlns="http://www.w3.org/2000/svg">
<g id="heart_stroke">
<path id="Vector" d="M9.60016 5.6676L10 6.20012L10.3998 5.6676C11.1793 4.62945 12.4389 4.00106 13.906 4.00098C15.0577 4.00235 16.1618 4.46046 16.9761 5.27483C17.7906 6.08927 18.2487 7.19351 18.25 8.34529C18.2497 10.8455 16.3787 13.1897 14.3231 14.9899C12.2938 16.7671 10.2179 17.8985 10.0621 17.981L10.0621 17.9809L10.0592 17.9825C10.041 17.9923 10.0207 17.9974 10 17.9974C9.97933 17.9974 9.95899 17.9923 9.94079 17.9825L9.93785 17.981C9.7821 17.8985 7.70624 16.7671 5.67687 14.9899C3.62122 13.1896 1.75014 10.8453 1.75 8.345C1.75137 7.19332 2.20949 6.0892 3.02385 5.27483C3.83822 4.46046 4.94234 4.00235 6.09402 4.00098C7.56107 4.00106 8.82069 4.62945 9.60016 5.6676Z" stroke="#1599DA"/>
</g>
</svg>
