<svg width="18" height="18" viewBox="0 0 18 18" fill="none" xmlns="http://www.w3.org/2000/svg">
<path d="M6.60711 16.3105V13.7624C6.60711 13.1119 7.13827 12.5846 7.79349 12.5846H10.1886C10.5033 12.5846 10.805 12.7087 11.0275 12.9296C11.25 13.1504 11.375 13.45 11.375 13.7624V16.3105C11.373 16.5809 11.4798 16.8409 11.6718 17.0328C11.8637 17.2247 12.1248 17.3327 12.3972 17.3327H14.0313C14.7945 17.3346 15.5271 17.0351 16.0674 16.5C16.6078 15.965 16.9115 15.2385 16.9115 14.4809V7.22173C16.9114 6.60973 16.6382 6.02922 16.1653 5.63657L10.6065 1.22924C9.63951 0.456484 8.25405 0.481434 7.31595 1.2885L1.88397 5.63657C1.38874 6.01764 1.09275 6.59988 1.07812 7.22173V14.4735C1.07813 16.0526 2.36761 17.3327 3.95827 17.3327H5.55503C6.12081 17.3327 6.58062 16.8795 6.58472 16.3179L6.60711 16.3105Z" stroke="#05192C" stroke-opacity="0.6" stroke-width="1.25"/>
</svg>
