<svg width="20" height="21" viewBox="0 0 20 21" fill="none" xmlns="http://www.w3.org/2000/svg">
<g id="Humanitarian aid &#38; development/20px" clip-path="url(#clip0_1_797)">
<g id="Vector">
<path d="M1.41455 8.62493C1.08195 8.81234 0.707765 9.31207 0.588978 9.73546C0.493947 10.0547 0.488008 10.4018 0.511766 13.0601C0.541463 16.9886 0.458311 16.6902 2.1451 19.168C2.90534 20.2855 3.03601 20.4451 3.21419 20.4798C3.38643 20.5215 3.44582 20.5007 3.53492 20.3688C3.75467 20.0564 3.69528 19.9107 2.75686 18.5364C2.26983 17.8215 1.77686 17.0233 1.66401 16.7734C1.30764 15.9683 1.29577 15.8364 1.29577 12.7894C1.29577 10.1172 1.3017 10.0339 1.42049 9.83958C1.69964 9.39536 2.24607 9.28431 2.55492 9.62441C2.85189 9.94369 2.8697 10.0825 2.8697 12.1995C2.8697 13.7611 2.88752 14.2331 2.95879 14.4622C3.00631 14.6218 3.30328 15.2534 3.61213 15.8642C4.22982 17.0511 4.33079 17.1621 4.64558 16.9608C4.94849 16.7596 4.89504 16.5236 4.2714 15.3089C3.65964 14.129 3.60619 13.9138 3.79031 13.4974C3.89128 13.2753 4.15261 13.0809 4.35455 13.0809C4.68716 13.0809 4.86534 13.2822 5.47116 14.3511C5.79782 14.9341 6.11855 15.5449 6.18388 15.7184C6.37394 16.2459 6.43334 16.8845 6.43334 18.5017C6.43334 20.2577 6.4571 20.3688 6.81346 20.3688C7.19952 20.3688 7.20546 20.3202 7.20546 18.3143C7.20546 16.3292 7.16388 15.9614 6.84316 15.1909C6.66498 14.7467 5.85722 13.2683 5.52461 12.7755C5.17419 12.255 4.37831 12.019 3.8497 12.2758L3.64182 12.3799V11.1167C3.64182 9.69382 3.59431 9.49254 3.20231 9.03444C2.87564 8.6527 2.66183 8.54859 2.12728 8.52082C1.7531 8.5 1.60461 8.52082 1.41455 8.62493Z" fill="#05192C" fill-opacity="0.6"/>
<path d="M17.2668 8.63188C16.9876 8.77763 16.6372 9.15938 16.4887 9.49254C16.3996 9.67994 16.3759 9.92981 16.364 11.0195C16.3462 12.2133 16.3343 12.3244 16.2452 12.2758C16.0136 12.1578 15.3365 12.1647 15.0752 12.2758C14.6653 12.4632 14.5406 12.6159 13.9051 13.7264C12.836 15.6004 12.7944 15.7601 12.7885 18.2935C12.7885 19.994 12.7944 20.1467 12.8954 20.2508C13.0439 20.4104 13.2993 20.3965 13.4418 20.23C13.5547 20.0981 13.5606 20.0009 13.5606 18.5434C13.5606 16.1765 13.6022 16.01 14.5584 14.3164C15.1999 13.185 15.3484 13.0254 15.7285 13.1087C16.067 13.185 16.2927 13.4835 16.2927 13.8652C16.2927 14.1221 16.2155 14.3233 15.7285 15.2742C15.4196 15.8781 15.1642 16.4542 15.1642 16.5513C15.1642 16.9747 15.5384 17.1899 15.8057 16.9192C15.9067 16.8081 16.8926 14.9411 17.0352 14.5732C17.0708 14.4969 17.1064 13.428 17.1242 12.1925L17.1539 9.94369L17.3737 9.71464C17.7657 9.29125 18.223 9.32596 18.5378 9.80487L18.6982 10.0478V12.8658C18.6982 16.593 18.7754 16.2945 17.2133 18.5781C16.4234 19.7302 16.3462 19.8621 16.364 20.0842C16.3759 20.2647 16.4234 20.3549 16.5362 20.4313C16.8154 20.6117 16.9401 20.5007 17.7479 19.3138C18.7516 17.8562 18.9417 17.5369 19.1436 17.0164C19.4703 16.1765 19.5 15.7948 19.5 12.72V9.92287L19.3575 9.57583C19.0783 8.88869 18.5556 8.5 17.8964 8.5C17.6469 8.5 17.4272 8.54859 17.2668 8.63188Z" fill="#05192C" fill-opacity="0.6"/>
</g>
<path id="Vector_2" d="M10.1018 12.9087L10.0838 12.924L10.0673 12.941L10.0128 12.997C10.0076 12.9954 10.0008 12.993 9.99203 12.9897C9.96242 12.9782 9.92976 12.9627 9.88346 12.9392C7.70406 11.1415 6.1533 9.57145 5.19032 8.21111C4.21553 6.8341 3.89132 5.74129 4.03112 4.87819L4.03756 4.83848V4.79824V4.76656C4.29013 3.19419 5.64847 2 7.2204 2C8.1505 2 8.98218 2.41617 9.65807 3.11163L10.0341 3.49855L10.3913 3.09421C10.9819 2.42583 11.8701 2 12.8129 2C14.3773 2 15.6793 3.11885 15.9957 4.77403V4.77441V4.77488V4.77534V4.77581V4.77628V4.77675V4.77722V4.77768V4.77815V4.77862V4.77909V4.77957V4.78004V4.78051V4.78098V4.78145V4.78192V4.7824V4.78287V4.78334V4.78382V4.78429V4.78477V4.78524V4.78572V4.78619V4.78667V4.78714V4.78762V4.7881V4.78857V4.78905V4.78953V4.79001V4.79049V4.79096V4.79144V4.79192V4.7924V4.79288V4.79336V4.79384V4.79432V4.7948V4.79529V4.79577V4.79625V4.79673V4.79721V4.7977V4.79818V4.79866V4.79915V4.79963V4.80011V4.8006V4.80108V4.80157V4.80205V4.80254V4.80302V4.80351V4.80399V4.80448V4.80497V4.80545V4.80594V4.80643V4.80691V4.8074V4.80789V4.80838V4.80887V4.80935V4.80984V4.81033V4.81082V4.81131V4.8118V4.81229V4.81278V4.81327V4.81376V4.81425V4.81474V4.81523V4.81572V4.81621V4.8167V4.81719V4.81768V4.81818V4.81867V4.81916V4.81965V4.82014V4.82064V4.82113V4.82162V4.82211V4.82261V4.8231V4.82359V4.82409V4.82458V4.82507V4.82557V4.82606V4.82655V4.82705V4.82754V4.82804V4.82853V4.82903V4.82952V4.83001V4.83051V4.831V4.8315V4.83199V4.83249V4.83298V4.83348V4.83397V4.83447V4.83496V4.83546V4.83596V4.83645V4.83695V4.83744V4.83794V4.83843V4.83893V4.83943V4.83992V4.84042V4.84091V4.84141V4.84191V4.8424V4.8429V4.84339V4.84389V4.84439V4.84488V4.84538V4.84588V4.84637V4.84687V4.84737V4.84786V4.84836V4.84885V4.84935V4.84985V4.85034V4.85084V4.85134V4.85183V4.85233V4.85282V4.85332V4.85382V4.85431V4.85481V4.8553V4.8558V4.8563V4.85679V4.85729V4.85778V4.85828V4.85878V4.85927V4.85977V4.86026V4.86076V4.86125V4.86175V4.86224V4.86274V4.86323V4.86373V4.86422V4.86472V4.86521V4.86571V4.8662V4.8667V4.86719V4.86769V4.86818V4.86867V4.86917V4.86966V4.87016V4.87065V4.87114V4.87164V4.87213V4.87262V4.87312V4.87361V4.8741V4.87459V4.87509V4.87558V4.87607V4.87656V4.87706V4.87755V4.87804V4.87853V4.87902V4.87951V4.88V4.88049V4.88098V4.88147V4.88197V4.88246V4.88295V4.88343V4.88392V4.88441V4.8849V4.88539V4.88588V4.88637V4.88686V4.88735V4.88783V4.88832V4.88881V4.8893V4.88978V4.89027V4.89076V4.89124V4.89173V4.89221V4.8927V4.89319V4.89367V4.89416V4.89464V4.89512V4.89561V4.89609V4.89658V4.89706V4.89754V4.89803V4.89851V4.89899V4.89947V4.89996V4.90044V4.90092V4.9014V4.90188V4.90236V4.90284V4.90332V4.9038V4.90428V4.90476V4.90524V4.90572V4.90619V4.90667V4.90715V4.90763V4.9081V4.90858V4.90906V4.90953V4.91001V4.91048V4.91096V4.91143V4.91191V4.91238V4.91285V4.91333V4.9138V4.91427V4.91474V4.91522V4.91569V4.91616V4.91663V4.9171V4.91757V4.91804V4.91851V4.91898V4.91944V4.91991V4.92038V4.92085V4.92131V4.92178V4.92225V4.92271V4.92318V4.92364V4.92411V4.92457V4.92504V4.9255V4.92596V4.92642V4.92689V4.92735V4.92781V4.92827V4.92873V4.92919V4.92965V4.93011V4.93057V4.93102V4.93148V4.93194V4.9324V4.93285V4.93331V4.93376V4.93422V4.93467V4.93513V4.93558V4.93603V4.93649V4.93694V4.93739V4.93784V4.93829V4.93874V4.93919V4.93964V4.94009V4.94054V4.94099V4.94143V4.94188V4.94233V4.94277V4.94322V4.94366V4.9441V4.94455V4.94499V4.94543V4.94588V4.94632V4.94676V4.9472V4.94764V4.94808V4.94852V4.94895V4.94939V4.94983V4.95027V4.9507V4.95114V4.95157V4.95201V4.95244V4.95287V4.95331V4.95374V4.95417V4.9546V4.95503V4.95546V4.95589V4.95632V4.95675V4.95717V4.9576V4.95803V4.95845V4.95888V4.9593V4.95972V4.96015V4.96057V4.96099V4.96141V4.96183V4.96225V4.96267V4.96309V4.96351V4.96393V4.96434V4.96476V4.96517V4.96559V4.966V4.96642V4.96683V4.96724V4.96765C15.9957 5.04862 15.9968 5.12176 15.9978 5.18939C16.002 5.47414 16.0047 5.66121 15.9196 5.9239C15.9015 5.97997 15.8872 6.01841 15.8722 6.05904C15.8652 6.07772 15.8581 6.09687 15.8504 6.11841L15.849 6.12239C15.836 6.15854 15.8115 6.22647 15.799 6.31005C15.2837 7.90342 13.6192 9.91583 10.1018 12.9087Z" stroke="#05192C" stroke-opacity="0.6"/>
</g>
<defs>
<clipPath id="clip0_1_797">
<rect width="20" height="20" fill="white" transform="translate(0 0.5)"/>
</clipPath>
</defs>
</svg>
