<svg width="32" height="32" viewBox="0 0 32 32" fill="none" xmlns="http://www.w3.org/2000/svg">
<g id="instagram_logo_icon_186894 1" clip-path="url(#clip0_1_750)">
<path id="Vector" d="M19.6705 9.21875H12.3259C11.9178 9.21874 11.5137 9.29911 11.1367 9.45527C10.7597 9.61143 10.4172 9.84031 10.1286 10.1289C9.84007 10.4174 9.61118 10.76 9.45502 11.137C9.29887 11.514 9.2185 11.9181 9.21851 12.3261V19.6707C9.21851 20.4949 9.54589 21.2853 10.1286 21.868C10.4172 22.1565 10.7597 22.3854 11.1367 22.5416C11.5137 22.6978 11.9178 22.7781 12.3259 22.7781H19.6705C20.4946 22.7781 21.285 22.4507 21.8677 21.868C22.4504 21.2852 22.7778 20.4949 22.7778 19.6707V12.3261C22.7778 11.9181 22.6975 11.514 22.5413 11.137C22.3852 10.76 22.1563 10.4174 21.8677 10.1289C21.5792 9.84034 21.2366 9.61145 20.8596 9.45529C20.4826 9.29913 20.0786 9.21875 19.6705 9.21875ZM15.9982 20.2729C15.1528 20.2729 14.3264 20.0222 13.6234 19.5525C12.9205 19.0828 12.3727 18.4152 12.0491 17.6342C11.7256 16.8531 11.641 15.9937 11.8059 15.1645C11.9708 14.3354 12.3779 13.5737 12.9757 12.976C13.5735 12.3782 14.3351 11.9711 15.1643 11.8061C15.9935 11.6412 16.8529 11.7259 17.6339 12.0494C18.415 12.3729 19.0826 12.9208 19.5523 13.6237C20.0219 14.3266 20.2726 15.153 20.2726 15.9984C20.2726 16.5598 20.1621 17.1156 19.9473 17.6342C19.7324 18.1528 19.4176 18.624 19.0207 19.0209C18.6238 19.4178 18.1525 19.7327 17.6339 19.9475C17.1154 20.1623 16.5595 20.2729 15.9982 20.2729ZM20.4508 12.5972C20.2497 12.5972 20.0531 12.5376 19.8858 12.4258C19.7186 12.3141 19.5882 12.1553 19.5112 11.9695C19.4343 11.7836 19.4141 11.5792 19.4534 11.3819C19.4926 11.1846 19.5894 11.0034 19.7317 10.8612C19.8739 10.719 20.0551 10.6221 20.2523 10.5829C20.4496 10.5436 20.6541 10.5637 20.8399 10.6407C21.0257 10.7177 21.1846 10.848 21.2963 11.0153C21.408 11.1825 21.4677 11.3791 21.4677 11.5803C21.4677 11.8499 21.3606 12.1086 21.1699 12.2993C20.9792 12.49 20.7205 12.5972 20.4508 12.5972Z" fill="url(#paint0_linear_1_750)"/>
<path id="Vector_2" d="M15.9969 13.2188C15.4474 13.2188 14.9102 13.3817 14.4533 13.687C13.9964 13.9923 13.6403 14.4262 13.43 14.9339C13.2197 15.4416 13.1647 16.0003 13.2719 16.5392C13.3791 17.0782 13.6437 17.5733 14.0323 17.9618C14.4209 18.3504 14.9159 18.615 15.4549 18.7222C15.9939 18.8294 16.5525 18.7744 17.0602 18.5641C17.5679 18.3538 18.0018 17.9977 18.3071 17.5408C18.6124 17.0839 18.7754 16.5467 18.7754 15.9972C18.7754 15.2603 18.4827 14.5536 17.9616 14.0325C17.4405 13.5115 16.7338 13.2187 15.9969 13.2188Z" fill="url(#paint1_linear_1_750)"/>
<path id="Vector_3" d="M15.9998 0C7.16319 0 -0.000244141 7.16344 -0.000244141 16C-0.000244141 24.8366 7.16319 32 15.9998 32C24.8363 32 31.9998 24.8366 31.9998 16C31.9998 7.16344 24.8363 0 15.9998 0ZM24.3331 19.5312C24.333 20.8048 23.8271 22.0262 22.9265 22.9268C22.026 23.8273 20.8046 24.3333 19.531 24.3333H12.4685C11.1949 24.3333 9.97353 23.8273 9.07297 22.9268C8.17241 22.0262 7.66645 20.8048 7.66638 19.5312V12.4688C7.66643 11.1952 8.17239 9.97376 9.07295 9.07321C9.97351 8.17266 11.1949 7.66672 12.4685 7.66669H19.531C20.8046 7.66674 22.026 8.17268 22.9265 9.07323C23.8271 9.97378 24.333 11.1952 24.3331 12.4688V19.5312Z" fill="url(#paint2_linear_1_750)"/>
</g>
<defs>
<linearGradient id="paint0_linear_1_750" x1="0.498193" y1="31.4984" x2="31.6435" y2="0.353125" gradientUnits="userSpaceOnUse">
<stop stop-color="#FFCB52"/>
<stop offset="0.318" stop-color="#FF6341"/>
<stop offset="0.658" stop-color="#CD39A2"/>
<stop offset="1" stop-color="#515BCA"/>
</linearGradient>
<linearGradient id="paint1_linear_1_750" x1="0.496946" y1="31.4972" x2="31.6423" y2="0.351878" gradientUnits="userSpaceOnUse">
<stop stop-color="#FFCB52"/>
<stop offset="0.318" stop-color="#FF6341"/>
<stop offset="0.658" stop-color="#CD39A2"/>
<stop offset="1" stop-color="#515BCA"/>
</linearGradient>
<linearGradient id="paint2_linear_1_750" x1="0.499756" y1="31.5" x2="31.6451" y2="0.354688" gradientUnits="userSpaceOnUse">
<stop stop-color="#FFCB52"/>
<stop offset="0.318" stop-color="#FF6341"/>
<stop offset="0.658" stop-color="#CD39A2"/>
<stop offset="1" stop-color="#515BCA"/>
</linearGradient>
<clipPath id="clip0_1_750">
<rect width="32" height="32" fill="white" transform="translate(-0.000244141)"/>
</clipPath>
</defs>
</svg>
