<svg width="20" height="21" viewBox="0 0 20 21" fill="none" xmlns="http://www.w3.org/2000/svg">
<g id="log out">
<path id="Vector" fill-rule="evenodd" clip-rule="evenodd" d="M3.75 3.625C3.41848 3.625 3.10054 3.7567 2.86612 3.99112C2.6317 4.22554 2.5 4.54348 2.5 4.875V16.125C2.5 16.4565 2.6317 16.7745 2.86612 17.0089C3.10054 17.2433 3.41848 17.375 3.75 17.375H11.25C11.5815 17.375 11.8995 17.2433 12.1339 17.0089C12.3683 16.7745 12.5 16.4565 12.5 16.125V14.6667C12.5 14.5009 12.5658 14.3419 12.6831 14.2247C12.8003 14.1075 12.9592 14.0417 13.125 14.0417C13.2908 14.0417 13.4497 14.1075 13.5669 14.2247C13.6842 14.3419 13.75 14.5009 13.75 14.6667V16.125C13.75 16.788 13.4866 17.4239 13.0178 17.8928C12.5489 18.3616 11.913 18.625 11.25 18.625H3.75C3.08696 18.625 2.45107 18.3616 1.98223 17.8928C1.51339 17.4239 1.25 16.788 1.25 16.125V4.875C1.25 4.21196 1.51339 3.57607 1.98223 3.10723C2.45107 2.63839 3.08696 2.375 3.75 2.375H11.25C11.913 2.375 12.5489 2.63839 13.0178 3.10723C13.4866 3.57607 13.75 4.21196 13.75 4.875V6.33333C13.75 6.49909 13.6842 6.65806 13.5669 6.77527C13.4497 6.89248 13.2908 6.95833 13.125 6.95833C12.9592 6.95833 12.8003 6.89248 12.6831 6.77527C12.5658 6.65806 12.5 6.49909 12.5 6.33333V4.875C12.5 4.54348 12.3683 4.22554 12.1339 3.99112C11.8995 3.7567 11.5815 3.625 11.25 3.625H3.75ZM15.1833 7.55833C15.3005 7.44129 15.4594 7.37555 15.625 7.37555C15.7906 7.37555 15.9495 7.44129 16.0667 7.55833L18.5667 10.0583C18.6837 10.1755 18.7495 10.3344 18.7495 10.5C18.7495 10.6656 18.6837 10.8245 18.5667 10.9417L16.0667 13.4417C16.0094 13.5031 15.9404 13.5523 15.8638 13.5865C15.7871 13.6206 15.7044 13.639 15.6204 13.6405C15.5365 13.642 15.4532 13.6265 15.3753 13.5951C15.2975 13.5637 15.2268 13.5169 15.1675 13.4575C15.1081 13.3982 15.0613 13.3275 15.0299 13.2497C14.9985 13.1718 14.983 13.0885 14.9845 13.0046C14.986 12.9206 15.0044 12.8379 15.0385 12.7612C15.0727 12.6846 15.1219 12.6156 15.1833 12.5583L16.6167 11.125H7.5C7.33424 11.125 7.17527 11.0592 7.05806 10.9419C6.94085 10.8247 6.875 10.6658 6.875 10.5C6.875 10.3342 6.94085 10.1753 7.05806 10.0581C7.17527 9.94085 7.33424 9.875 7.5 9.875H16.6167L15.1833 8.44167C15.0663 8.32448 15.0006 8.16563 15.0006 8C15.0006 7.83437 15.0663 7.67552 15.1833 7.55833Z" fill="#05192C" fill-opacity="0.6"/>
</g>
</svg>
