<svg width="20" height="20" viewBox="0 0 20 20" fill="none" xmlns="http://www.w3.org/2000/svg">
<g id="map-pin/20px">
<path id="Vector" d="M16 8.66797C16 13.3346 10 17.3346 10 17.3346C10 17.3346 4 13.3346 4 8.66797C4 7.07667 4.63214 5.55055 5.75736 4.42533C6.88258 3.30011 8.4087 2.66797 10 2.66797C11.5913 2.66797 13.1174 3.30011 14.2426 4.42533C15.3679 5.55055 16 7.07667 16 8.66797Z" stroke="#05192C" stroke-opacity="0.6" stroke-width="1.2" stroke-linecap="round" stroke-linejoin="round"/>
<path id="Vector_2" d="M10 10.668C11.1046 10.668 12 9.77254 12 8.66797C12 7.5634 11.1046 6.66797 10 6.66797C8.89543 6.66797 8 7.5634 8 8.66797C8 9.77254 8.89543 10.668 10 10.668Z" stroke="#05192C" stroke-opacity="0.6" stroke-width="1.2" stroke-linecap="round" stroke-linejoin="round"/>
</g>
</svg>
