<svg width="20" height="21" viewBox="0 0 20 21" fill="none" xmlns="http://www.w3.org/2000/svg">
<g id="Evangelism &#38; missions /20px">
<path id="Vector 2517" d="M15.069 2.5H15.569C15.569 2.22386 15.3451 2 15.069 2V2.5ZM3 2.5V2C2.86739 2 2.74021 2.05268 2.64645 2.14645C2.55268 2.24021 2.5 2.36739 2.5 2.5L3 2.5ZM4.93103 19.5L4.93103 20H4.93103V19.5ZM17 16.7432H17.5C17.5 16.4671 17.2761 16.2432 17 16.2432V16.7432ZM6.86207 16.7432V16.2432C6.58593 16.2432 6.36207 16.4671 6.36207 16.7432H6.86207ZM5.5 11C5.22386 11 5 11.2239 5 11.5C5 11.7761 5.22386 12 5.5 12V11ZM12.7414 12C13.0175 12 13.2414 11.7761 13.2414 11.5C13.2414 11.2239 13.0175 11 12.7414 11V12ZM5.5 12.8378C5.22386 12.8378 5 13.0617 5 13.3378C5 13.614 5.22386 13.8378 5.5 13.8378V12.8378ZM11.5862 13.8378C11.8623 13.8378 12.0862 13.614 12.0862 13.3378C12.0862 13.0617 11.8623 12.8378 11.5862 12.8378V13.8378ZM9.5 4.40541C9.5 4.12926 9.27614 3.90541 9 3.90541C8.72386 3.90541 8.5 4.12926 8.5 4.40541H9.5ZM8.5 9C8.5 9.27614 8.72386 9.5 9 9.5C9.27614 9.5 9.5 9.27614 9.5 9H8.5ZM7.55172 5.28378C7.27558 5.28378 7.05172 5.50764 7.05172 5.78378C7.05172 6.05993 7.27558 6.28378 7.55172 6.28378V5.28378ZM10.4483 6.28378C10.7244 6.28378 10.9483 6.05993 10.9483 5.78378C10.9483 5.50764 10.7244 5.28378 10.4483 5.28378V6.28378ZM15.569 16.7432V2.5H14.569V16.7432H15.569ZM15.069 2H3V3H15.069V2ZM4.93103 20H15V19H4.93103V20ZM17.5 17.5V16.7432H16.5V17.5H17.5ZM17 16.2432H6.86207V17.2432H17V16.2432ZM6.36207 16.7432C6.36207 17.8612 6.16885 18.399 5.94829 18.6614C5.75194 18.895 5.45493 19 4.93103 19V20C5.56576 20 6.23427 19.8753 6.71378 19.3048C7.16908 18.7632 7.36207 17.9226 7.36207 16.7432H6.36207ZM5.5 12H12.7414V11H5.5V12ZM5.5 13.8378H11.5862V12.8378H5.5V13.8378ZM8.5 4.40541V9H9.5V4.40541H8.5ZM7.55172 6.28378H10.4483V5.28378H7.55172V6.28378ZM3 2.5C2.5 2.5 2.5 2.50003 2.5 2.5001C2.5 2.50017 2.5 2.50027 2.5 2.50041C2.5 2.50067 2.5 2.50111 2.5 2.50163C2.5 2.50271 2.5 2.50436 2.5 2.50652C2.5 2.51084 2.5 2.51732 2.5 2.52588C2.5 2.54301 2.5 2.56852 2.5 2.60204C2.5 2.66907 2.5 2.76813 2.5 2.89625C2.5 3.1525 2.5 3.52496 2.5 3.98986C2.5 4.91967 2.5 6.21921 2.5 7.69819C2.5 10.6561 2.5 14.3318 2.5 17.2027H3.5C3.5 14.3318 3.5 10.6561 3.5 7.69819C3.5 6.21921 3.5 4.91966 3.5 3.98986C3.5 3.52496 3.5 3.1525 3.5 2.89625C3.5 2.76814 3.5 2.66907 3.5 2.60204C3.5 2.56852 3.5 2.54302 3.5 2.52588C3.5 2.51733 3.5 2.51083 3.5 2.50652C3.5 2.50437 3.5 2.5027 3.5 2.50163C3.5 2.50106 3.5 2.50071 3.5 2.50041C3.5 2.50027 3.5 2.50017 3.5 2.5001C3.5 2.50003 3.5 2.5 3 2.5ZM2.5 17.2027C2.5 18.5228 3.07148 19.2628 3.7099 19.6426C4.01289 19.8228 4.31172 19.9109 4.53206 19.9546C4.64315 19.9766 4.73713 19.9879 4.80572 19.9937C4.84011 19.9966 4.86838 19.9982 4.88954 19.999C4.90012 19.9995 4.90895 19.9997 4.9159 19.9998C4.91938 19.9999 4.92239 19.9999 4.92491 20C4.92618 20 4.92732 20 4.92834 20C4.92885 20 4.92933 20 4.92978 20C4.93 20 4.93032 20 4.93043 20C4.93074 20 4.93103 20 4.93103 19.5C4.93103 19 4.93132 19 4.93159 19C4.93168 19 4.93195 19 4.93211 19C4.93244 19 4.93275 19 4.93302 19C4.93358 19 4.93402 19 4.93436 19C4.93503 19 4.93526 19 4.93509 19C4.93473 19 4.93272 19 4.92916 18.9998C4.92203 18.9995 4.90881 18.9989 4.8904 18.9973C4.85338 18.9942 4.7965 18.9875 4.72656 18.9737C4.58483 18.9456 4.4009 18.8901 4.22113 18.7831C3.89404 18.5886 3.5 18.1799 3.5 17.2027H2.5ZM15 20C16.3807 20 17.5 18.8807 17.5 17.5H16.5C16.5 18.3284 15.8284 19 15 19V20Z" fill="#05192C" fill-opacity="0.6"/>
</g>
</svg>
