<svg width="20" height="20" viewBox="0 0 20 20" fill="none" xmlns="http://www.w3.org/2000/svg">
<g id="phone/20px">
<path id="Vector" d="M18.3332 14.0994V16.5994C18.3341 16.8315 18.2866 17.0612 18.1936 17.2739C18.1006 17.4865 17.9643 17.6774 17.7933 17.8343C17.6222 17.9912 17.4203 18.1107 17.2005 18.185C16.9806 18.2594 16.7477 18.287 16.5165 18.2661C13.9522 17.9875 11.489 17.1112 9.32486 15.7078C7.31139 14.4283 5.60431 12.7212 4.32486 10.7078C2.91651 8.53377 2.04007 6.05859 1.76653 3.48276C1.7457 3.25232 1.77309 3.02006 1.84695 2.80078C1.9208 2.5815 2.03951 2.38 2.1955 2.20911C2.3515 2.03822 2.54137 1.90169 2.75302 1.8082C2.96468 1.71471 3.19348 1.66631 3.42486 1.6661H5.92486C6.32928 1.66212 6.72136 1.80533 7.028 2.06904C7.33464 2.33275 7.53493 2.69897 7.59153 3.09943C7.69705 3.89949 7.89274 4.68504 8.17486 5.4411C8.28698 5.73937 8.31125 6.06353 8.24478 6.37516C8.17832 6.6868 8.02392 6.97286 7.79986 7.19943L6.74153 8.25776C7.92783 10.3441 9.65524 12.0715 11.7415 13.2578L12.7999 12.1994C13.0264 11.9754 13.3125 11.821 13.6241 11.7545C13.9358 11.688 14.2599 11.7123 14.5582 11.8244C15.3143 12.1066 16.0998 12.3022 16.8999 12.4078C17.3047 12.4649 17.6744 12.6688 17.9386 12.9807C18.2029 13.2926 18.3433 13.6907 18.3332 14.0994Z" stroke="#05192C" stroke-opacity="0.6" stroke-width="1.2" stroke-linecap="round" stroke-linejoin="round"/>
</g>
</svg>
