<svg width="20" height="20" viewBox="0 0 20 20" fill="none" xmlns="http://www.w3.org/2000/svg">
<g id="send grand">
<path id="Vector" d="M17.1587 2.84841C17.009 2.69881 16.8221 2.59181 16.6172 2.53846C16.4124 2.4851 16.197 2.4873 15.9933 2.54484H15.9821L1.69759 6.87812C1.46506 6.94498 1.25842 7.08106 1.10519 7.26826C0.951951 7.45546 0.859393 7.68488 0.839835 7.92598C0.820277 8.16708 0.874648 8.40842 0.995708 8.61786C1.11677 8.82729 1.29877 8.99489 1.51748 9.09833L7.88949 12.1154L10.9073 18.4859C11.0026 18.6899 11.1542 18.8624 11.3444 18.983C11.5346 19.1036 11.7553 19.1674 11.9805 19.1667C12.0147 19.1667 12.0489 19.1652 12.0832 19.1622C12.3235 19.1427 12.5521 19.0503 12.7383 18.8972C12.9246 18.7441 13.0595 18.5378 13.1251 18.3058L17.4564 4.02473C17.4564 4.02101 17.4564 4.01729 17.4564 4.01357C17.5147 3.81042 17.5179 3.59542 17.4656 3.39065C17.4132 3.18588 17.3073 2.99872 17.1587 2.84841ZM11.9872 17.965L11.9834 17.9755L9.05419 11.7932L12.5699 8.27766C12.6768 8.16512 12.7356 8.01527 12.7336 7.86006C12.7316 7.70484 12.669 7.55655 12.5592 7.44679C12.4495 7.33703 12.3011 7.27448 12.1459 7.2725C11.9906 7.27051 11.8407 7.32923 11.7282 7.43615L8.21174 10.951L2.02727 8.02245H2.03769L16.3163 3.69066L11.9872 17.965Z" fill="white"/>
</g>
</svg>
