<svg width="32" height="32" viewBox="0 0 32 32" fill="none" xmlns="http://www.w3.org/2000/svg">
<g id="Group">
<path id="Vector" d="M15.9999 31.9997C24.8363 31.9997 31.9997 24.8363 31.9997 15.9999C31.9997 7.16338 24.8363 0 15.9999 0C7.16338 0 0 7.16338 0 15.9999C0 24.8363 7.16338 31.9997 15.9999 31.9997Z" fill="#55ACEE"/>
<g id="Group_2">
<path id="Vector_2" d="M25.8004 11.4986C25.1147 11.8027 24.3771 12.0083 23.6036 12.1001C24.3934 11.627 24.9995 10.8783 25.2855 9.98471C24.5466 10.4231 23.7277 10.7411 22.857 10.9125C22.1593 10.1695 21.1654 9.7052 20.0647 9.7052C17.953 9.7052 16.2403 11.4179 16.2403 13.5296C16.2403 13.8294 16.2742 14.1211 16.3398 14.4012C13.1614 14.2418 10.3433 12.7193 8.45686 10.4048C8.12772 10.9695 7.93891 11.627 7.93891 12.3277C7.93891 13.6543 8.61458 14.8253 9.6402 15.511C9.01359 15.4913 8.42349 15.3193 7.90811 15.0321C7.90782 15.0484 7.90782 15.0646 7.90782 15.0806C7.90782 16.9336 9.22664 18.4792 10.9759 18.8303C10.6553 18.9181 10.3167 18.9646 9.96848 18.9646C9.72149 18.9646 9.4822 18.941 9.24889 18.8965C9.73546 20.4155 11.1476 21.5213 12.8215 21.5524C11.5123 22.5783 9.86352 23.1895 8.07125 23.1895C7.76322 23.1895 7.45804 23.1715 7.15942 23.1359C8.85102 24.2214 10.8618 24.8543 13.0214 24.8543C20.0559 24.8543 23.9028 19.0268 23.9028 13.9726C23.9028 13.8068 23.8991 13.6417 23.8917 13.478C24.6395 12.9389 25.2878 12.2656 25.8004 11.4986Z" fill="white"/>
</g>
</g>
</svg>
