<svg width="20" height="21" viewBox="0 0 20 21" fill="none" xmlns="http://www.w3.org/2000/svg">
<g id="Environment/20px">
<path id="Ellipse 8637" d="M13.683 2.31818C13.2739 3 12.4557 4.52727 12.4557 5.18182C12.4557 6 14.092 7.22727 13.683 8.04545C13.274 8.86368 11.6376 10.5 12.8648 11.7273C14.0921 12.9545 14.091 10.9091 16.5456 11.3182C17.091 11.4545 18.2637 11.8909 18.591 12.5455M1 10.9091C1.40909 10.5 2.47273 9.68182 3.45455 9.68182C4.43636 9.68182 5.5 10.2273 5.90909 10.5C10 11.7273 10.4091 8.04545 8.36364 7.63636C6.72727 7.30909 4.68182 5.59091 3.86364 4.77273L3.45455 4.36364M3.86364 17.0455C4.54545 16.6364 6.23636 15.7364 7.54545 15.4091C9.18182 15 8.77273 13.7727 10.8182 14.1818C12.4545 14.5091 13.9545 17.0455 14.5 18.2727M19 10.5C19 15.4706 14.9706 19.5 10 19.5C5.02944 19.5 1 15.4706 1 10.5C1 5.52944 5.02944 1.5 10 1.5C14.9706 1.5 19 5.52944 19 10.5Z" stroke="#05192C" stroke-opacity="0.6"/>
</g>
</svg>
